<svg width="32" height="32" viewBox="0 0 32 32" fill="none" xmlns="http://www.w3.org/2000/svg">
<path d="M3.70141 6.64223C3.87432 5.69125 4.70258 5 5.66915 5H29.6036C30.8514 5 31.7945 6.13009 31.5713 7.35777L28.2986 25.3578C28.1257 26.3088 27.2974 27 26.3308 27H2.39643C1.14862 27 0.205471 25.8699 0.428686 24.6422L3.70141 6.64223Z" fill="#8C8C8C"/>
<rect x="16" y="20" width="7" height="2" fill="white"/>
<path d="M14.603 16.682C14.603 17.241 14.4253 17.7112 14.07 18.0925C13.719 18.4695 13.2337 18.7165 12.614 18.8335V19.867H11.067V18.866C10.1917 18.762 9.50267 18.502 9 18.086L9.468 17.033C9.58933 17.1457 9.7605 17.2648 9.9815 17.3905C10.2025 17.5118 10.456 17.6158 10.742 17.7025C11.028 17.7848 11.3183 17.826 11.613 17.826C11.9727 17.826 12.276 17.7458 12.523 17.5855C12.7743 17.4208 12.9 17.163 12.9 16.812C12.9 16.617 12.8263 16.4523 12.679 16.318C12.536 16.1837 12.3605 16.0753 12.1525 15.993C11.9445 15.9063 11.6737 15.8153 11.34 15.72C10.8893 15.59 10.4993 15.434 10.17 15.252C9.84067 15.07 9.572 14.8252 9.364 14.5175C9.156 14.2055 9.052 13.8177 9.052 13.354C9.052 13.0073 9.13 12.691 9.286 12.405C9.44633 12.1147 9.676 11.8698 9.975 11.6705C10.2783 11.4712 10.6423 11.3347 11.067 11.261V10H12.614V11.2675C12.9823 11.3368 13.303 11.443 13.576 11.586C13.8533 11.729 14.0483 11.872 14.161 12.015L13.641 13.016C13.589 12.9467 13.4763 12.8578 13.303 12.7495C13.1297 12.6368 12.9238 12.5393 12.6855 12.457C12.4515 12.3703 12.2153 12.327 11.977 12.327C11.6087 12.327 11.2988 12.4072 11.0475 12.5675C10.8005 12.7278 10.677 12.9597 10.677 13.263C10.677 13.588 10.8178 13.8372 11.0995 14.0105C11.3812 14.1795 11.7343 14.3117 12.159 14.407C12.8827 14.576 13.4698 14.8533 13.9205 15.239C14.3755 15.6247 14.603 16.1057 14.603 16.682Z" fill="white"/>
</svg>
