<svg width="24" height="24" viewBox="0 0 24 24" fill="none" xmlns="http://www.w3.org/2000/svg">
<path d="M10 21.5V2.5H21V21.5H10Z" fill="#535250"/>
<path d="M15.5 11.375L18.625 10.75L18.25 8.75L15.5 9.375L9.5 6.75L5 7.5L2.75 10.25L4.25 11.5L6 9.25L8.5205 8.772L5.5 16H2V18H7L8.5 15L11.5 18V21.5H13.482V16.989L11 14.375L12.75 10.25L15.5 11.375Z" fill="white"/>
<path d="M11 5.25C11 6.2125 11.7875 7 12.75 7C13.7125 7 14.5 6.2125 14.5 5.25C14.5 4.2875 13.7125 3.5 12.75 3.5C11.7875 3.5 11 4.2875 11 5.25Z" fill="white"/>
</svg>
