<svg width="24" height="24" viewBox="0 0 24 24" fill="none" xmlns="http://www.w3.org/2000/svg">
<path d="M12 3C14.0473 3 16.0335 3.69804 17.6307 4.97892C19.2278 6.2598 20.3406 8.04696 20.7852 10.0454C21.2298 12.0439 20.9798 14.1343 20.0763 15.9715C19.1729 17.8087 17.67 19.283 15.8158 20.151C13.9616 21.0191 11.8668 21.229 9.87726 20.7461C7.88767 20.2632 6.12219 19.1164 4.87219 17.4949C3.62219 15.8735 2.96238 13.8743 3.00166 11.8273C3.04093 9.78037 3.77695 7.80797 5.08824 6.23566L6.96822 7.80355C6.0136 8.94819 5.47777 10.3841 5.44918 11.8743C5.42058 13.3645 5.90093 14.8199 6.81093 16.0003C7.72094 17.1808 9.00621 18.0156 10.4546 18.3672C11.9031 18.7187 13.4281 18.5659 14.7779 17.934C16.1278 17.3021 17.2219 16.2288 17.8796 14.8913C18.5373 13.5538 18.7193 12.032 18.3956 10.5771C18.072 9.12218 17.2619 7.82112 16.0991 6.88864C14.9364 5.95615 13.4905 5.44797 12 5.44797V3Z" fill="white"/>
<path d="M8.53326 3.94581L8.93439 10.1199L2.39137 4.69243L8.53326 3.94581Z" fill="white"/>
</svg>
