<svg width="16" height="16" viewBox="0 0 16 16" fill="none" xmlns="http://www.w3.org/2000/svg">
<g clip-path="url(#clip0_11_161)">
<path d="M15.8135 14.3994L11.6288 10.2145L10.2146 11.6287L14.3993 15.8136L15.8135 14.3994Z" fill="#BFBFBF"/>
<path d="M14 7C14 10.866 10.866 14 7 14C3.13401 14 0 10.866 0 7C0 3.13401 3.13401 0 7 0C10.866 0 14 3.13401 14 7ZM1.98495 7C1.98495 9.76974 4.23026 12.0151 7 12.0151C9.76974 12.0151 12.0151 9.76974 12.0151 7C12.0151 4.23026 9.76974 1.98495 7 1.98495C4.23026 1.98495 1.98495 4.23026 1.98495 7Z" fill="#BFBFBF"/>
</g>
<defs>
<clipPath id="clip0_11_161">
<rect width="16" height="16" fill="white"/>
</clipPath>
</defs>
</svg>
