<svg xmlns="http://www.w3.org/2000/svg"  viewBox="0 0 48 48" width="48px" height="48px"><path d="M 9.5 8 C 6.4802259 8 4 10.480226 4 13.5 L 4 34.5 C 4 37.519774 6.4802259 40 9.5 40 L 38.5 40 C 41.519774 40 44 37.519774 44 34.5 L 44 13.5 C 44 10.480226 41.519774 8 38.5 8 L 9.5 8 z M 9.5 11 L 38.5 11 C 39.898226 11 41 12.101774 41 13.5 L 41 34.5 C 41 35.898226 39.898226 37 38.5 37 L 9.5 37 C 8.1017741 37 7 35.898226 7 34.5 L 7 13.5 C 7 12.101774 8.1017741 11 9.5 11 z M 24 14 C 21.256343 14 19 16.256343 19 19 L 19 21 C 17.343 21 16 22.343 16 24 L 16 30 C 16 31.657 17.343 33 19 33 L 29 33 C 30.657 33 32 31.657 32 30 L 32 24 C 32 22.343 30.657 21 29 21 L 29 19 C 29 16.256343 26.743657 14 24 14 z M 24 17 C 25.122343 17 26 17.877657 26 19 L 26 21 L 22 21 L 22 19 C 22 17.877657 22.877657 17 24 17 z M 24 25 C 25.105 25 26 25.895 26 27 C 26 28.105 25.105 29 24 29 C 22.895 29 22 28.105 22 27 C 22 25.895 22.895 25 24 25 z"/></svg>