<svg xmlns="http://www.w3.org/2000/svg"  viewBox="0 0 48 48" width="48px" height="48px"><path d="M 24 6 C 14.082241 6 6 14.082241 6 24 C 6 33.917759 14.082241 42 24 42 C 33.917759 42 42 33.917759 42 24 C 42 23.211034 41.93435 22.462241 41.845703 21.751953 A 2.0002 2.0002 0 1 0 37.876953 22.248047 C 37.952302 22.851759 38 23.430966 38 24 C 38 31.756241 31.756241 38 24 38 C 16.243759 38 10 31.756241 10 24 C 10 16.243759 16.243759 10 24 10 C 27.273715 10 30.264085 11.124038 32.640625 13 L 31 13 A 2.0002 2.0002 0 1 0 31 17 L 37 17 A 2.0002 2.0002 0 0 0 39 15 L 39 9 A 2.0002 2.0002 0 0 0 36.970703 6.9726562 A 2.0002 2.0002 0 0 0 35 9 L 35 9.7695312 C 31.956093 7.4118008 28.138417 6 24 6 z"/></svg>