<svg width="24" height="24" viewBox="0 0 24 24" fill="none" xmlns="http://www.w3.org/2000/svg">
<path d="M16.5 4.20577C18.2158 5.19637 19.5567 6.72545 20.3149 8.55585C21.0731 10.3862 21.2061 12.4157 20.6933 14.3294C20.1806 16.2431 19.0507 17.9341 17.4789 19.1402C15.9071 20.3463 13.9812 21 12 21C10.0188 21 8.09295 20.3463 6.52115 19.1402C4.94935 17.9341 3.81944 16.2431 3.30667 14.3294C2.79389 12.4157 2.92691 10.3862 3.68508 8.55585C4.44326 6.72545 5.78422 5.19638 7.5 4.20577L8.72399 6.32578C7.4749 7.04694 6.49867 8.16011 5.94672 9.49265C5.39476 10.8252 5.29793 12.3026 5.67123 13.6958C6.04453 15.089 6.86711 16.32 8.01138 17.1981C9.15565 18.0761 10.5577 18.552 12 18.552C13.4423 18.552 14.8443 18.0761 15.9886 17.1981C17.1329 16.32 17.9555 15.089 18.3288 13.6958C18.7021 12.3026 18.6052 10.8252 18.0533 9.49265C17.5013 8.16011 16.5251 7.04694 15.276 6.32578L16.5 4.20577Z" fill="white"/>
<rect x="11" y="3" width="2" height="6" fill="white"/>
</svg>
