<svg xmlns="http://www.w3.org/2000/svg"  viewBox="0 0 48 48" width="48px" height="48px"><path d="M 10.496094 6.5 A 2.0002 2.0002 0 1 0 10.496094 10.5 L 19.449219 10.5 L 8.9082031 24.285156 A 2.0002 2.0002 0 0 0 10.496094 27.5 L 22.496094 27.5 A 2.0002 2.0002 0 1 0 22.496094 23.5 L 14.544922 23.5 L 25.085938 9.7148438 A 2.0002 2.0002 0 0 0 23.496094 6.5 L 10.496094 6.5 z M 30.496094 15.5 C 29.397965 15.5 28.496094 16.400795 28.496094 17.5 C 28.496094 18.599205 29.397965 19.5 30.496094 19.5 L 33.855469 19.5 L 28.808594 27.425781 C 28.416919 28.041271 28.392842 28.824171 28.744141 29.462891 C 29.093836 30.102449 29.767313 30.5 30.496094 30.5 L 37.496094 30.5 C 38.594223 30.5 39.496094 29.599205 39.496094 28.5 C 39.496094 27.400795 38.594223 26.5 37.496094 26.5 L 34.138672 26.5 L 39.185547 18.574219 C 39.57687 17.959282 39.600306 17.177466 39.25 16.539062 L 39.25 16.537109 C 38.900301 15.897598 38.224874 15.5 37.496094 15.5 L 30.496094 15.5 z M 17.246094 30.5 C 16.285562 30.5 15.496094 31.289469 15.496094 32.25 C 15.496094 33.210531 16.285562 34 17.246094 34 L 20.429688 34 L 15.802734 40.761719 L 15.804688 40.761719 C 15.437031 41.297126 15.395908 41.993331 15.699219 42.566406 C 16.000638 43.140114 16.597958 43.5 17.246094 43.5 L 23.746094 43.5 C 24.706625 43.5 25.496094 42.710531 25.496094 41.75 C 25.496094 40.789469 24.706625 40 23.746094 40 L 20.564453 40 L 25.191406 33.238281 L 25.189453 33.238281 C 25.557109 32.702874 25.596279 32.006669 25.292969 31.433594 C 24.991344 30.860601 24.393767 30.5 23.746094 30.5 L 17.246094 30.5 z"/></svg>